#!OML:ASF F:\VICON\USERDATA\INSTALL\rory3\rory3.ASF
:FULLY-SPECIFIED
:DEGREES
639
root -0.17525 29.4934 -9.15751 -177.314 -75.6538 172.882
lowerback 8.94244 2.64143 -5.52742
upperback 1.37381 2.71542 -3.19448
thorax -3.68992 1.34089 -0.543835
lowerneck -8.26834 2.34443 -4.95058
upperneck 10.9319 3.04545 5.89587
head 4.4501 1.62508 2.81213
rclavicle 2.52953e-014 -1.27222e-014
rhumerus -29.9178 2.01274 -82.942
rradius 39.2344
rwrist 15.9204
rhand -26.0064 4.51255
rfingers 7.12502
rthumb 0.539519 -25.4665
lclavicle 2.52953e-014 -1.27222e-014
lhumerus -31.4581 24.996 70.1821
lradius 15.5982
lwrist -10.7673
lhand -23.2992 23.2459
lfingers 7.12502
lthumb 3.15413 53.2024
rfemur -12.2472 0.30193 20.0143
rtibia 53.0535
rfoot -25.8424 -15.1982
rtoes -3.63365
lfemur -10.1327 11.6122 -24.5368
ltibia 33.0684
lfoot -22.3538 12.3945
ltoes -12.1912
640
root -0.195842 29.4983 -9.16203 -176.219 -76.6606 171.626
lowerback 8.98635 2.75028 -5.6442
upperback 1.51796 2.83458 -3.38072
thorax -3.56444 1.3917 -0.684875
lowerneck -8.19366 2.21171 -4.86601
upperneck 10.8765 2.85153 5.91625
head 4.43265 1.53366 2.79159
rclavicle -3.20043e-014 3.33958e-014
rhumerus -29.9936 1.97219 -83.1619
rradius 39.2651
rwrist 14.762
rhand -23.5826 5.22603
rfingers 7.12502
rthumb 2.88047 -24.7343
lclavicle -3.20043e-014 3.33958e-014
lhumerus -30.9975 24.7129 70.2877
lradius 15.6567
lwrist -10.9193
lhand -22.9813 23.1668
lfingers 7.12502
lthumb 3.46115 53.1185
rfemur -12.4012 0.867209 19.6969
rtibia 53.3698
rfoot -25.7886 -14.6123
rtoes -4.56176
lfemur -9.87914 11.3751 -24.7602
ltibia 32.9357
lfoot -21.1498 13.1019
ltoes -19.4691
641
root -0.216674 29.5065 -9.16043 -175.234 -77.8455 170.751
lowerback 8.97741 2.71837 -5.64783
upperback 1.44831 2.78357 -3.49837
thorax -3.62502 1.36756 -0.800693
lowerneck -8.04575 2.16133 -4.819
upperneck 11.0417 2.7604 5.93192
head 4.46374 1.48794 2.78387
rclavicle -3.06128e-014 6.67916e-014
rhumerus -30.2299 1.81416 -83.2828
rradius 39.1747
rwrist 14.322
rhand -22.7931 5.76129
rfingers 7.12502
rthumb 3.64287 -24.1873
lclavicle -3.06128e-014 6.67916e-014
lhumerus -30.8113 23.9003 70.5422
lradius 15.9341
lwrist -10.3221
lhand -23.2042 23.5752
lfingers 7.12502
lthumb 3.24591 53.5302
rfemur -12.7528 1.25401 19.5149
rtibia 53.5644
rfoot -25.821 -14.1379
rtoes -5.08113
lfemur -9.91389 10.7666 -24.8671
ltibia 32.842
lfoot -20.7115 13.0199
ltoes -22.0389
642
root -0.231578 29.5125 -9.15682 -176.33 -79.1733 171.97
lowerback 9.15664 2.56221 -5.37342
upperback 1.3171 2.59918 -3.35174
thorax -3.85043 1.28398 -0.789775
lowerneck -7.76941 2.20863 -4.91895
upperneck 11.1401 2.83752 5.78661
head 4.44393 1.50817 2.75628
rclavicle 1.35671e-014 3.81667e-014
rhumerus -30.5413 1.88734 -83.2929
rradius 39.0969
rwrist 14.2055
rhand -22.7004 6.07374
rfingers 7.12502
rthumb 3.73242 -23.8733
lclavicle 1.35671e-014 3.81667e-014
lhumerus -30.8787 23.4674 70.729
lradius 16.2619
lwrist -9.74757
lhand -23.1234 23.7585
lfingers 7.12502
lthumb 3.32392 53.7124
rfemur -13.0427 1.56626 19.8363
rtibia 53.6479
rfoot -25.9136 -13.7407
rtoes -5.35749
lfemur -9.90736 10.0565 -24.4401
ltibia 32.6816
lfoot -20.8081 12.3258
ltoes -21.6649
643
root -0.242788 29.5169 -9.15765 -177.329 -80.4863 172.996
lowerback 9.32076 2.47509 -5.28676
upperback 1.33683 2.49553 -3.16544
thorax -3.92252 1.23671 -0.637408
lowerneck -7.51299 2.29103 -5.06374
upperneck 11.076 2.97534 5.64256
head 4.37394 1.55855 2.73719
rclavicle -1.13804e-014 -5.08889e-014
rhumerus -30.6915 2.22296 -83.308
rradius 39.0669
rwrist 13.9645
rhand -23.1555 5.46988
rfingers 7.12502
rthumb 3.29295 -24.4844
lclavicle -1.13804e-014 -5.08889e-014
lhumerus -30.7744 23.5162 70.9395
lradius 16.5674
lwrist -9.56419
lhand -22.9412 23.513
lfingers 7.12502
lthumb 3.49984 53.464
rfemur -13.2292 1.94755 20.0755
rtibia 53.6322
rfoot -26.0349 -13.4183
rtoes -5.29307
lfemur -9.81195 9.33097 -24.0928
ltibia 32.5033
lfoot -20.8963 11.4984
ltoes -21.0665
644
root -0.268882 29.5264 -9.15916 -173.238 -81.7801 168.979
lowerback 9.16234 2.50174 -5.73439
upperback 1.41005 2.48938 -3.31521
thorax -3.77058 1.23217 -0.534716
lowerneck -7.34771 2.31171 -4.97631
upperneck 11.0692 3.00472 5.4776
head 4.34695 1.5649 2.67043
rclavicle -3.8763e-015 -3.33958e-014
rhumerus -30.8391 2.3546 -83.3945
rradius 39.0056
rwrist 14.3022
rhand -24.5054 3.73548
rfingers 7.12502
rthumb 1.98922 -26.235
lclavicle -3.8763e-015 -3.33958e-014
lhumerus -30.3668 22.8669 71.3818
lradius 16.8469
lwrist -8.9415
lhand -23.1098 23.7297
lfingers 7.12502
lthumb 3.33703 53.6833
rfemur -13.4387 2.25723 19.3955
rtibia 53.531
rfoot -26.1017 -13.2274
rtoes -5.51958
lfemur -9.8085 8.46142 -24.6643
ltibia 32.3824
lfoot -21.0312 10.9399
ltoes -20.8482
645
root -0.303248 29.54 -9.16719 -169.448 -83.1154 165.43
lowerback 8.76784 2.45459 -5.94839
upperback 1.43707 2.43676 -3.42525
thorax -3.52511 1.20324 -0.505879
lowerneck -7.36317 2.22621 -5.00492
upperneck 11.2442 2.88252 5.51141
head 4.40852 1.50436 2.68232
rclavicle -1.83876e-014 4.6118e-014
rhumerus -30.9409 2.21024 -83.4268
rradius 38.8289
rwrist 14.0496
rhand -26.6368 3.19154
rfingers 7.12502
rthumb -0.069308 -26.7882
lclavicle -1.83876e-014 4.6118e-014
lhumerus -29.9588 21.8755 71.8549
lradius 17.1102
lwrist -8.005
lhand -23.6163 23.9442
lfingers 7.12502
lthumb 2.84791 53.9049
rfemur -13.7044 2.6025 19.0186
rtibia 53.3114
rfoot -25.962 -13.3853
rtoes -6.28927
lfemur -9.94112 7.7195 -24.9386
ltibia 32.2578
lfoot -20.9629 10.4916
ltoes -21.5097
646
root -0.319472 29.552 -9.18762 -172.944 -84.6191 169.274
lowerback 8.49389 2.30117 -5.63229
upperback 1.41367 2.31169 -3.1587
thorax -3.38993 1.1444 -0.378537
lowerneck -7.38726 2.22574 -5.07705
upperneck 11.4064 2.88101 5.54988
head 4.46032 1.5019 2.70907
rclavicle 2.66371e-014 -3.33958e-014
rhumerus -31.0934 2.79588 -83.6886
rradius 38.8774
rwrist 12.7161
rhand -26.8216 2.1707
rfingers 7.12502
rthumb -0.247774 -27.8089
lclavicle 2.66371e-014 -3.33958e-014
lhumerus -29.6587 21.4249 72.1987
lradius 17.3292
lwrist -7.50722
lhand -23.9053 23.9398
lfingers 7.12502
lthumb 2.56881 53.9041
rfemur -14.0679 3.16526 19.7951
rtibia 52.9872
rfoot -25.8862 -13.7788
rtoes -6.20285
lfemur -10.223 7.07357 -24.1373
ltibia 32.1324
lfoot -21.1569 9.34874
ltoes -18.8316
647
root -0.336508 29.5605 -9.19718 -174.167 -85.88 170.591
lowerback 8.45712 2.22441 -5.56717
upperback 1.43058 2.23141 -3.02115
thorax -3.35156 1.10655 -0.260584
lowerneck -7.04445 2.49054 -4.80611
upperneck 11.34 3.23 5.23068
head 4.37403 1.66187 2.57717
rclavicle 6.95746e-016 -3.65764e-014
rhumerus -31.261 3.08887 -83.6996
rradius 38.7882
rwrist 12.7373
rhand -26.595 1.98917
rfingers 7.12502
rthumb -0.0289058 -27.9906
lclavicle 6.95746e-016 -3.65764e-014
lhumerus -29.4989 21.2021 72.4291
lradius 17.7011
lwrist -7.218
lhand -24.278 23.8749
lfingers 7.12502
lthumb 2.20887 53.8432
rfemur -14.1768 3.81775 20.06
rtibia 52.6096
rfoot -26.18 -13.729
rtoes -4.47366
lfemur -10.2799 6.64842 -23.7992
ltibia 32.0906
lfoot -21.6637 8.02835
ltoes -13.7845
648
root -0.361442 29.5665 -9.19661 -168.741 -86.9878 165.147
lowerback 8.49501 2.21515 -5.70797
upperback 1.46341 2.20153 -3.06477
thorax -3.341 1.09159 -0.224743
lowerneck -7.48767 2.18646 -5.48097
upperneck 11.8616 2.81002 5.98785
head 4.6061 1.47314 2.91685
rclavicle -6.36111e-015 -1.59028e-015
rhumerus -31.4223 3.03158 -83.7275
rradius 38.6179
rwrist 12.8785
rhand -26.516 2.14365
rfingers 7.12502
rthumb 0.0473715 -27.8361
lclavicle -6.36111e-015 -1.59028e-015
lhumerus -29.3664 21.1204 72.5371
lradius 18.061
lwrist -7.08793
lhand -24.1975 23.7663
lfingers 7.12502
lthumb 2.28663 53.7338
rfemur -14.1697 4.3958 19.8027
rtibia 52.196
rfoot -26.5425 -13.7367
rtoes -3.63209
lfemur -10.2174 6.34149 -23.9682
ltibia 32.1022
lfoot -21.8266 7.34761
ltoes -12.6617
649
root -0.375631 29.5729 -9.206 -163.176 -88.2677 159.764
lowerback 8.54925 2.16707 -5.69302
upperback 1.39254 2.1358 -3.03586
thorax -3.44293 1.06357 -0.199242
lowerneck -7.71986 2.03215 -5.88907
upperneck 12.2759 2.58796 6.45245
head 4.77168 1.37442 3.12795
rclavicle -3.21037e-014 7.95139e-015
rhumerus -31.5682 2.69689 -83.7426
rradius 38.411
rwrist 13.149
rhand -26.2781 1.66087
rfingers 7.12502
rthumb 0.277152 -28.3187
lclavicle -3.21037e-014 7.95139e-015
lhumerus -29.2225 20.8717 72.6942
lradius 18.423
lwrist -6.91908
lhand -24.213 23.9637
lfingers 7.12502
lthumb 2.27165 53.9313
rfemur -14.4237 4.93706 19.9038
rtibia 51.7453
rfoot -26.8233 -13.8701
rtoes -2.4732
lfemur -10.3831 5.82212 -23.8118
ltibia 32.0027
lfoot -21.2668 7.29638
ltoes -16.7854
